<?xml version="1.0" encoding="UTF-8" standalone="no"?>
<!-- Created with Inkscape (http://www.inkscape.org/) -->

<svg
   xmlns:dc="http://purl.org/dc/elements/1.1/"
   xmlns:cc="http://creativecommons.org/ns#"
   xmlns:rdf="http://www.w3.org/1999/02/22-rdf-syntax-ns#"
   xmlns:svg="http://www.w3.org/2000/svg"
   xmlns="http://www.w3.org/2000/svg"
   xmlns:xlink="http://www.w3.org/1999/xlink"
   xmlns:sodipodi="http://sodipodi.sourceforge.net/DTD/sodipodi-0.dtd"
   xmlns:inkscape="http://www.inkscape.org/namespaces/inkscape"
   id="svg2383"
   sodipodi:docname="d6.svg"
   version="1.0"
   width="32"
   inkscape:version="0.48.1 "
   height="32">
  <metadata
     id="metadata42">
    <rdf:RDF>
      <cc:Work
         rdf:about="">
        <dc:format>image/svg+xml</dc:format>
        <dc:type
           rdf:resource="http://purl.org/dc/dcmitype/StillImage" />
        <dc:title></dc:title>
      </cc:Work>
    </rdf:RDF>
  </metadata>
  <sodipodi:namedview
     objecttolerance="10"
     bordercolor="#666666"
     inkscape:window-height="625"
     inkscape:zoom="9.15625"
     id="namedview40"
     gridtolerance="10"
     inkscape:current-layer="svg2383"
     inkscape:window-y="205"
     inkscape:cy="16"
     inkscape:window-x="465"
     inkscape:cx="16.556532"
     showgrid="false"
     guidetolerance="10"
     inkscape:pageopacity="0"
     inkscape:pageshadow="2"
     inkscape:window-width="977"
     inkscape:window-maximized="0"
     borderopacity="1"
     pagecolor="#ffffff" />
  <defs
     id="defs2385">
    <linearGradient
       id="linearGradient3171">
      <stop
         offset="0"
         style="stop-color:#000000;stop-opacity:1;"
         id="stop3173" />
      <stop
         offset="1"
         style="stop-color:#ffffff;stop-opacity:0"
         id="stop3175" />
    </linearGradient>
    <clipPath
       id="clipPath3292">
      <path
         style="fill:#aa0000;fill-opacity:1;stroke:none"
         id="path3294"
         d="m 13.0625,8.625 c -1.832549,0 -3.34375,1.511201 -3.34375,3.34375 l 0,39 c 0,1.832549 1.511201,3.343752 3.34375,3.34375 l 39,0 c 1.832549,0 3.343747,-1.511202 3.34375,-3.34375 l 0,-39 c 0,-1.832549 -1.511202,-3.34375 -3.34375,-3.34375 l -39,0 z" />
    </clipPath>
    <clipPath
       id="clipPath4617">
      <path
         style="fill:#e4e4e4;fill-opacity:1;stroke:none"
         id="path4619"
         d="m 36.363638,33.81818 a 3.818182,3.818182 0 1 1 -7.636364,0 3.818182,3.818182 0 1 1 7.636364,0 z" />
    </clipPath>
    <filter
       x="-0.21256091"
       width="1.4251218"
       id="filter5684"
       height="1.4255112"
       y="-0.21275564"
       color-interpolation-filters="sRGB">
      <feGaussianBlur
         stdDeviation="0.32724543"
         id="feGaussianBlur5686" />
    </filter>
    <linearGradient
       gradientTransform="translate(-3.0909089,-2.0000002)"
       x1="-42.02264"
       gradientUnits="userSpaceOnUse"
       x2="52.142193"
       y1="-11.407188"
       xlink:href="#linearGradient3171"
       y2="52.774632"
       id="linearGradient2929" />
    <linearGradient
       gradientTransform="translate(-3.0909089,-2.0000002)"
       x1="-42.02264"
       gradientUnits="userSpaceOnUse"
       x2="52.142193"
       y1="-11.407188"
       xlink:href="#linearGradient3171"
       y2="52.774632"
       id="linearGradient2879" />
    <linearGradient
       gradientTransform="translate(-3.0909089,-2.0000002)"
       x1="-42.02264"
       gradientUnits="userSpaceOnUse"
       x2="52.142193"
       y1="-11.407188"
       xlink:href="#linearGradient3171"
       y2="52.774632"
       id="linearGradient2932" />
    <linearGradient
       gradientTransform="translate(-3.0909089,-2.0000002)"
       x1="-42.02264"
       gradientUnits="userSpaceOnUse"
       x2="52.142193"
       y1="-11.407188"
       xlink:href="#linearGradient3171"
       y2="52.774632"
       id="linearGradient3779" />
    <linearGradient
       gradientTransform="translate(-3.0909089,-2.0000002)"
       x1="-42.02264"
       gradientUnits="userSpaceOnUse"
       x2="52.142193"
       y1="-11.407188"
       xlink:href="#linearGradient3171"
       y2="52.774632"
       id="linearGradient3800" />
    <filter
       color-interpolation-filters="sRGB"
       id="filter3873">
      <feGaussianBlur
         stdDeviation="0.675"
         id="feGaussianBlur3875" />
    </filter>
  </defs>
  <rect
     x="3.5"
     y="3.4999998"
     width="27"
     style="opacity:0.44308944;fill:#000000;fill-opacity:1;stroke:#610000;stroke-width:0.9999997;stroke-linecap:round;stroke-linejoin:round;stroke-miterlimit:4;stroke-opacity:1;stroke-dasharray:none;stroke-dashoffset:0;filter:url(#filter3873)"
     rx="2.5"
     id="rect3823"
     ry="2.5"
     height="27" />
  <rect
     x="2.5"
     y="2.4999998"
     width="27"
     style="fill:#000000;fill-opacity:1;stroke:#000000;stroke-width:0.99999970000000005;stroke-linecap:round;stroke-linejoin:round;stroke-miterlimit:4;stroke-opacity:1;stroke-dasharray:none;stroke-dashoffset:0"
     rx="2.5"
     id="rect3821"
     ry="2.5"
     height="27" />
  <g
     id="layer1"
     transform="translate(0,-32)" />
  <g
     id="layer2"
     transform="translate(0,-32)" />
  <rect
     x="3.5"
     y="3.5"
     width="25"
     style="fill:#fefffa;fill-opacity:1;stroke:#c8c8c8;stroke-width:0.99999981999999998;stroke-linecap:round;stroke-linejoin:round;stroke-miterlimit:4;stroke-opacity:1;stroke-dasharray:none;stroke-dashoffset:0"
     rx="1.744186"
     id="rect3255"
     ry="1.744186"
     height="25" />
  <path
     id="path3169"
     d="M -0.54545491,39.272727 C 3.4829871,32.190535 9.8815061,27.3102 18.000001,28 26.076362,28.686221 37.895925,39.304596 46,39.454545 c 8.819519,0.163187 16.088479,-17.943919 23.454549,-13.090909 12.8722,8.48064 2.76514,41.997569 -10.18182,50.363637 C 44.213577,86.458192 12.623535,77.106002 0.99999909,63.454545 -3.7126389,57.919707 -4.1395929,45.591394 -0.54545491,39.272727 z"
     style="fill:url(#linearGradient3800);fill-opacity:1;fill-rule:evenodd;stroke:none;stroke-width:0.30048317;marker:none;visibility:visible;display:inline;overflow:visible;enable-background:accumulate;stroke-miterlimit:4;stroke-dasharray:none"
     clip-path="url(#clipPath3292)"
     transform="matrix(0.56908345,0,0,0.56908345,-2.5307798,-1.9083449)" />
  <path
     d="m 36.363638,33.81818 a 3.818182,3.818182 0 1 1 -7.636364,0 3.818182,3.818182 0 1 1 7.636364,0 z"
     id="path4114"
     inkscape:connector-curvature="0"
     style="fill:#000000;fill-opacity:1;stroke:none"
     clip-path="url(#clipPath4617)"
     transform="matrix(0.74522832,0,0,0.74522832,-16.098145,-16.785623)" />
  <path
     d="m 36.363638,33.81818 a 3.818182,3.818182 0 1 1 -7.636364,0 3.818182,3.818182 0 1 1 7.636364,0 z"
     id="path3298"
     inkscape:connector-curvature="0"
     style="fill:#000000;fill-opacity:1;stroke:none"
     clip-path="url(#clipPath4617)"
     transform="matrix(0.74522832,0,0,0.74522832,-0.40944647,-1.6189078)" />
  <path
     d="m 36.363638,33.81818 a 3.818182,3.818182 0 1 1 -7.636364,0 3.818182,3.818182 0 1 1 7.636364,0 z"
     id="path4102"
     inkscape:connector-curvature="0"
     style="fill:#000000;fill-opacity:1;stroke:none"
     clip-path="url(#clipPath4617)"
     transform="matrix(0.74522832,0,0,0.74522832,-16.098145,-1.6189078)" />
  <path
     d="m 36.363638,33.81818 a 3.818182,3.818182 0 1 1 -7.636364,0 3.818182,3.818182 0 1 1 7.636364,0 z"
     id="path4096"
     inkscape:connector-curvature="0"
     style="fill:#000000;fill-opacity:1;stroke:none"
     clip-path="url(#clipPath4617)"
     transform="matrix(0.74522832,0,0,0.74522832,-0.40944637,-16.785624)" />
  <path
     id="path3789"
     d="m 36.363638,33.81818 a 3.818182,3.818182 0 1 1 -7.636364,0 3.818182,3.818182 0 1 1 7.636364,0 z"
     inkscape:connector-curvature="0"
     style="fill:#000000;fill-opacity:1;stroke:none"
     clip-path="url(#clipPath4617)"
     transform="matrix(0.74522832,0,0,0.74522832,-16.098145,-9.0194817)" />
  <path
     id="path3797"
     d="m 36.363638,33.81818 a 3.818182,3.818182 0 1 1 -7.636364,0 3.818182,3.818182 0 1 1 7.636364,0 z"
     inkscape:connector-curvature="0"
     style="fill:#000000;fill-opacity:1;stroke:none"
     clip-path="url(#clipPath4617)"
     transform="matrix(0.74522832,0,0,0.74522832,-0.40944637,-9.0194819)" />
</svg>
